<svg id="svg" version="1.1" xmlns="http://www.w3.org/2000/svg" xmlns:xlink="http://www.w3.org/1999/xlink" width="400" height="400" viewBox="0, 0, 400,400"><g id="svgg"><path id="path0" d="M278.333 162.117 C 243.760 164.202,216.569 196.490,219.974 231.417 C 224.465 277.486,275.138 303.655,315.066 280.525 C 315.881 280.053,316.609 279.667,316.683 279.667 C 316.804 279.667,317.811 279.050,318.250 278.708 C 318.342 278.637,318.803 278.333,319.274 278.033 C 321.429 276.663,325.659 273.151,328.248 270.583 C 333.782 265.095,338.621 257.973,341.837 250.583 C 343.437 246.908,345.015 241.689,345.819 237.417 C 347.219 229.974,347.305 223.240,346.102 215.250 C 345.733 212.801,344.606 208.073,343.917 206.083 C 342.825 202.928,342.484 202.037,341.738 200.391 C 341.607 200.103,341.500 199.819,341.500 199.761 C 341.500 199.352,337.290 191.556,336.635 190.752 C 336.560 190.659,335.928 189.758,335.231 188.750 C 334.534 187.742,333.912 186.879,333.848 186.833 C 333.785 186.787,333.511 186.451,333.241 186.086 C 330.379 182.215,324.311 176.456,320.001 173.519 C 319.679 173.300,318.962 172.804,318.407 172.416 C 317.851 172.028,317.026 171.529,316.573 171.309 C 316.121 171.088,314.917 170.437,313.899 169.863 C 303.574 164.037,291.195 161.341,278.333 162.117 M300.712 197.980 C 305.090 201.159,310.250 206.583,311.939 209.781 L 312.250 210.370 304.617 217.884 L 296.984 225.399 304.009 232.426 L 311.035 239.453 310.408 240.352 C 306.629 245.760,300.462 251.796,297.525 252.959 C 297.386 253.015,294.637 250.388,290.311 246.066 L 283.323 239.083 275.764 246.750 L 268.206 254.417 266.895 253.516 C 262.972 250.824,260.029 248.098,257.200 244.536 C 255.738 242.697,254.496 240.935,254.507 240.717 C 254.510 240.644,257.881 237.171,261.996 233.000 L 269.480 225.417 262.462 218.388 L 255.444 211.359 256.755 209.638 C 260.557 204.644,262.517 202.668,267.139 199.170 L 269.195 197.614 276.265 204.681 L 283.334 211.749 290.958 204.125 C 295.152 199.931,298.603 196.500,298.628 196.500 C 298.653 196.500,299.591 197.166,300.712 197.980 " stroke="none" fill="#e81e2c" fill-rule="evenodd"></path><path id="path1" d="M120.083 46.013 C 114.097 46.622,107.390 49.073,102.000 52.622 C 101.679 52.833,101.276 53.098,101.105 53.211 C 100.933 53.324,100.708 53.492,100.605 53.583 C 100.501 53.675,99.967 54.085,99.417 54.495 C 98.867 54.904,98.192 55.428,97.917 55.659 C 97.099 56.345,93.628 59.857,92.968 60.667 C 92.167 61.650,91.477 62.541,91.167 62.994 C 91.029 63.194,90.823 63.484,90.708 63.638 C 89.534 65.211,87.598 68.689,86.656 70.917 C 86.027 72.404,85.605 73.516,85.192 74.777 C 84.770 76.068,84.542 76.999,83.832 80.333 C 83.352 82.590,83.333 87.108,83.333 200.000 C 83.333 319.444,83.321 317.222,84.020 320.500 C 84.206 321.371,84.425 322.401,84.507 322.790 C 85.245 326.292,87.711 331.898,90.061 335.417 C 90.306 335.783,90.598 336.224,90.711 336.395 C 90.824 336.567,90.992 336.792,91.083 336.895 C 91.175 336.999,91.471 337.383,91.741 337.750 C 93.780 340.517,97.742 344.396,100.500 346.327 C 100.821 346.551,101.158 346.799,101.250 346.877 C 102.093 347.593,105.815 349.663,108.167 350.723 C 111.858 352.387,115.465 353.374,119.833 353.915 C 122.189 354.206,276.876 354.286,279.667 353.997 C 282.371 353.717,287.465 352.584,288.667 351.995 C 288.804 351.928,289.367 351.703,289.917 351.495 C 292.738 350.432,295.039 349.273,297.583 347.635 C 299.106 346.654,299.194 346.596,299.395 346.417 C 299.499 346.325,299.883 346.030,300.250 345.761 C 302.934 343.793,307.096 339.555,308.739 337.119 C 308.973 336.772,309.244 336.397,309.342 336.286 C 310.424 335.047,312.891 330.344,313.995 327.417 C 314.203 326.867,314.428 326.303,314.496 326.165 C 314.632 325.889,315.002 324.644,315.414 323.083 C 315.842 321.462,316.316 318.865,316.495 317.167 C 316.658 315.611,316.743 296.167,316.587 296.167 C 316.543 296.167,316.087 296.435,315.574 296.763 C 313.810 297.892,309.245 300.134,306.500 301.219 C 268.294 316.330,226.125 292.040,220.081 251.439 C 219.282 246.071,219.182 238.704,219.852 234.500 C 219.975 233.727,219.966 232.587,219.822 230.517 C 216.637 184.974,259.572 151.173,303.000 165.034 C 307.328 166.415,311.616 168.393,316.549 171.284 C 316.621 171.327,316.652 161.436,316.617 149.306 L 316.553 127.250 316.121 125.000 C 315.519 121.861,315.206 120.391,315.009 119.777 C 314.154 117.112,313.443 114.997,313.262 114.583 C 313.141 114.308,312.902 113.746,312.730 113.333 C 311.521 110.438,308.593 105.273,307.060 103.333 C 303.983 99.438,306.217 101.744,283.489 79.013 C 260.948 56.471,262.677 58.146,259.165 55.444 C 256.879 53.684,252.184 51.047,248.750 49.593 C 248.383 49.438,247.933 49.244,247.750 49.162 C 247.474 49.039,245.374 48.341,242.723 47.491 C 242.165 47.312,240.574 46.965,238.500 46.570 C 234.540 45.816,236.282 45.836,177.167 45.857 C 146.504 45.869,120.817 45.939,120.083 46.013 M242.985 75.261 C 243.587 75.440,244.088 75.746,244.573 76.231 C 245.913 77.571,245.833 76.262,245.836 96.821 C 245.839 116.974,245.807 116.312,246.892 118.579 C 248.273 121.465,250.440 123.368,253.667 124.527 L 254.750 124.917 277.917 125.000 L 301.083 125.083 301.875 125.473 C 305.145 127.083,304.699 132.188,301.204 133.159 C 300.369 133.391,256.048 133.393,254.417 133.161 C 246.154 131.986,239.920 126.216,237.869 117.846 C 237.459 116.176,237.352 79.261,237.752 77.884 C 238.385 75.707,240.656 74.569,242.985 75.261 M290.991 204.092 C 286.826 208.258,283.368 211.648,283.308 211.625 C 283.248 211.602,280.072 208.508,276.251 204.750 C 272.430 200.992,269.238 197.892,269.157 197.863 C 268.909 197.772,264.345 201.335,262.714 202.893 C 260.519 204.992,255.667 210.779,255.667 211.299 C 255.667 211.365,258.779 214.530,262.583 218.333 C 266.387 222.137,269.500 225.324,269.500 225.415 C 269.500 225.507,266.117 228.966,261.982 233.101 C 255.299 239.786,254.483 240.657,254.640 240.950 C 256.611 244.634,263.488 251.503,267.628 253.924 L 268.173 254.242 275.753 246.664 L 283.333 239.085 290.314 246.064 C 295.285 251.034,297.360 253.005,297.522 252.911 C 301.711 250.470,306.517 245.799,310.046 240.741 L 310.983 239.398 303.991 232.408 L 297.000 225.418 304.604 217.813 L 312.207 210.208 311.541 209.229 C 308.460 204.701,304.455 200.676,299.657 197.289 L 298.565 196.517 290.991 204.092 " stroke="none" fill="#e4ecf5" fill-rule="evenodd"></path><path id="path2" d="M240.278 75.271 C 239.143 75.619,238.096 76.703,237.752 77.884 C 237.352 79.261,237.459 116.176,237.869 117.846 C 239.920 126.216,246.154 131.986,254.417 133.161 C 256.048 133.393,300.369 133.391,301.204 133.159 C 304.699 132.188,305.145 127.083,301.875 125.473 L 301.083 125.083 277.917 125.000 L 254.750 124.917 253.667 124.527 C 250.440 123.368,248.273 121.465,246.892 118.579 C 245.807 116.312,245.839 116.974,245.836 96.821 C 245.833 76.262,245.913 77.571,244.573 76.231 C 243.448 75.106,241.924 74.765,240.278 75.271 M219.868 234.333 C 216.014 262.013,232.467 290.186,258.789 300.977 C 277.182 308.518,299.156 306.896,315.537 296.787 L 316.667 296.090 316.667 287.859 L 316.667 279.628 316.292 279.871 C 302.183 289.018,282.064 291.569,264.833 286.398 C 241.322 279.342,223.322 258.379,220.268 234.500 L 220.066 232.917 219.868 234.333 " stroke="none" fill="#a4c4dc" fill-rule="evenodd"></path><path id="path3" d="M281.875 161.957 C 282.585 161.988,283.748 161.988,284.458 161.957 C 285.169 161.926,284.587 161.900,283.167 161.900 C 281.746 161.900,281.165 161.926,281.875 161.957 M287.542 162.115 C 287.702 162.157,287.965 162.157,288.125 162.115 C 288.285 162.073,288.154 162.039,287.833 162.039 C 287.512 162.039,287.381 162.073,287.542 162.115 M238.330 180.458 L 236.750 182.083 238.375 180.503 C 239.884 179.036,240.076 178.833,239.955 178.833 C 239.930 178.833,239.199 179.565,238.330 180.458 M269.020 197.708 C 269.061 197.731,270.217 198.838,271.589 200.167 L 274.083 202.583 271.669 200.125 C 270.341 198.773,269.185 197.667,269.099 197.667 C 269.014 197.667,268.978 197.685,269.020 197.708 M305.583 202.167 C 306.312 202.900,306.946 203.500,306.992 203.500 C 307.038 203.500,306.479 202.900,305.750 202.167 C 305.021 201.433,304.387 200.833,304.341 200.833 C 304.295 200.833,304.854 201.433,305.583 202.167 M262.078 203.375 L 261.083 204.417 262.125 203.422 C 262.698 202.875,263.167 202.406,263.167 202.380 C 263.167 202.257,263.002 202.407,262.078 203.375 M274.167 202.719 C 274.167 202.748,274.410 202.991,274.708 203.260 L 275.250 203.750 274.760 203.208 C 274.304 202.703,274.167 202.590,274.167 202.719 M309.082 213.375 L 306.083 216.417 309.125 213.418 C 311.951 210.633,312.242 210.333,312.123 210.333 C 312.099 210.333,310.731 211.702,309.082 213.375 M255.500 211.265 C 255.500 211.349,258.669 214.568,262.542 218.417 L 269.583 225.417 262.583 218.340 C 258.733 214.448,255.565 211.229,255.542 211.187 C 255.519 211.145,255.500 211.180,255.500 211.265 M266.998 227.958 L 264.583 230.417 267.042 228.002 C 269.325 225.759,269.575 225.500,269.456 225.500 C 269.432 225.500,268.326 226.606,266.998 227.958 M304.828 247.125 L 303.917 248.083 304.875 247.172 C 305.402 246.671,305.833 246.240,305.833 246.214 C 305.833 246.090,305.674 246.235,304.828 247.125 M270.572 251.835 C 269.191 253.209,268.105 254.333,268.158 254.333 C 268.211 254.333,269.377 253.208,270.750 251.833 C 272.123 250.458,273.209 249.334,273.165 249.335 C 273.120 249.336,271.953 250.461,270.572 251.835 " stroke="none" fill="#d598a6" fill-rule="evenodd"></path><path id="path4" d="M304.491 217.958 L 303.917 218.583 304.542 218.009 C 304.885 217.693,305.167 217.412,305.167 217.384 C 305.167 217.257,305.026 217.377,304.491 217.958 M263.491 231.458 L 262.917 232.083 263.542 231.509 C 263.885 231.193,264.167 230.912,264.167 230.884 C 264.167 230.757,264.026 230.877,263.491 231.458 M275.333 247.083 C 274.650 247.771,274.129 248.333,274.175 248.333 C 274.221 248.333,274.817 247.771,275.500 247.083 C 276.183 246.396,276.704 245.833,276.658 245.833 C 276.612 245.833,276.016 246.396,275.333 247.083 M238.167 270.417 C 238.942 271.196,239.613 271.833,239.659 271.833 C 239.705 271.833,239.108 271.196,238.333 270.417 C 237.558 269.637,236.887 269.000,236.841 269.000 C 236.795 269.000,237.392 269.637,238.167 270.417 M282.298 289.124 C 282.875 289.156,283.775 289.156,284.298 289.123 C 284.822 289.090,284.350 289.063,283.250 289.064 C 282.150 289.064,281.722 289.091,282.298 289.124 " stroke="none" fill="#b47c94" fill-rule="evenodd"></path></g></svg>